<svg xmlns="http://www.w3.org/2000/svg" viewBox="0 0 240 240" width="240" height="240">
  <!-- «Бой с тенью»: red glove, and its shadow is a boxer with the blue corner's rim -->
  <circle cx="120" cy="120" r="116" fill="#EFE8DA"/>
  <clipPath id="disc"><circle cx="120" cy="120" r="116"/></clipPath>
  <g clip-path="url(#disc)">
    <circle cx="164" cy="58" r="28" fill="#2F5BD3"/>
    <path d="M122 250 L126 128 C130 104 146 94 168 94 C192 94 206 106 210 128 L204 250 Z" fill="#2F5BD3"/>
    <circle cx="172" cy="64" r="28" fill="#0E0D0C"/>
    <path d="M130 250 L134 134 C138 110 154 100 176 100 C200 100 214 112 218 134 L212 250 Z" fill="#0E0D0C"/>
  </g>
  <g transform="translate(22 78) scale(1.3)">
    <g stroke="#0E0D0C" stroke-width="7" stroke-linejoin="round" fill="#D8342C">
      <path d="M20 92 C8 80 4 56 8 38 C12 14 30 2 54 2 C80 2 96 18 96 44 C96 68 92 86 84 96 Z"/>
      <path d="M22 92 L84 92 L82 130 L26 130 Z"/>
      <path d="M24 100 L83.5 100 L83 118 L25 118 Z" fill="#F2C94C"/>
    </g>
  </g>
</svg>
